<?xml version="1.0" standalone="no"?>
<!DOCTYPE svg PUBLIC "-//W3C//DTD SVG 20010904//EN"
 "http://www.w3.org/TR/2001/REC-SVG-20010904/DTD/svg10.dtd">
<svg version="1.0" xmlns="http://www.w3.org/2000/svg"
 width="380.000000pt" height="380.000000pt" viewBox="0 0 380.000000 380.000000"
 preserveAspectRatio="xMidYMid meet">
<metadata>
Created by potrace 1.14, written by Peter Selinger 2001-2017
</metadata>
<g transform="translate(0.000000,380.000000) scale(0.100000,-0.100000)"
fill="#000000" stroke="none">
<path d="M884 3339 c-10 -17 13 -36 27 -22 12 12 4 33 -11 33 -5 0 -12 -5 -16
-11z"/>
<path d="M1764 3285 c-4 -9 -2 -21 4 -27 16 -16 47 -5 47 17 0 26 -42 34 -51
10z"/>
<path d="M2724 3185 c-8 -19 3 -35 26 -35 19 0 34 25 24 41 -8 14 -44 10 -50
-6z"/>
<path d="M1596 3154 c-9 -8 -16 -19 -16 -24 0 -11 29 -40 40 -40 14 0 40 30
40 45 0 8 -9 19 -19 25 -25 13 -27 13 -45 -6z"/>
<path d="M2831 3146 c-20 -23 -9 -69 18 -83 29 -14 55 -4 71 28 26 47 -55 96
-89 55z"/>
<path d="M2104 3139 c-8 -14 11 -33 25 -25 6 4 11 14 11 22 0 16 -26 19 -36 3z"/>
<path d="M2304 3140 c-25 -10 -34 -37 -23 -66 10 -28 42 -36 69 -17 43 30 3
102 -46 83z"/>
<path d="M1326 3084 c-24 -24 -20 -61 9 -80 23 -15 27 -15 50 0 42 28 24 96
-25 96 -10 0 -26 -7 -34 -16z"/>
<path d="M1943 3084 c-3 -8 2 -23 11 -32 15 -15 17 -15 32 0 21 21 11 48 -16
48 -11 0 -23 -7 -27 -16z"/>
<path d="M1840 3021 c-20 -39 22 -82 60 -61 22 12 27 49 8 68 -18 18 -56 14
-68 -7z"/>
<path d="M1960 2985 c-26 -32 13 -81 48 -59 34 22 22 74 -18 74 -10 0 -23 -7
-30 -15z"/>
<path d="M2647 2972 c-37 -40 -9 -102 46 -102 34 0 57 24 57 60 0 16 -7 36
-16 44 -21 22 -67 20 -87 -2z"/>
<path d="M2074 2965 c-8 -21 2 -45 19 -45 21 0 38 25 31 44 -8 20 -43 21 -50
1z"/>
<path d="M2376 2948 c-20 -28 -4 -58 29 -58 33 0 49 30 29 58 -8 12 -21 22
-29 22 -8 0 -21 -10 -29 -22z"/>
<path d="M2512 2959 c-27 -10 -36 -31 -28 -64 7 -29 45 -42 76 -25 48 26 4
109 -48 89z"/>
<path d="M1160 2945 c-20 -24 -3 -55 30 -55 20 0 31 6 35 20 8 25 -10 50 -35
50 -10 0 -23 -7 -30 -15z"/>
<path d="M1286 2934 c-25 -24 -20 -71 9 -90 29 -19 60 -11 81 20 36 56 -43
117 -90 70z"/>
<path d="M676 2874 c-30 -30 -9 -84 33 -84 22 0 51 30 51 53 0 21 -27 47 -50
47 -10 0 -26 -7 -34 -16z"/>
<path d="M2120 2877 c-31 -16 -54 -61 -46 -92 19 -77 119 -84 154 -11 18 36 1
81 -39 101 -34 18 -37 18 -69 2z"/>
<path d="M1910 2860 c-24 -24 -25 -48 -4 -78 31 -45 104 -19 104 37 0 55 -61
80 -100 41z"/>
<path d="M1746 2839 c-28 -40 9 -88 57 -75 31 7 44 44 27 75 -15 28 -64 28
-84 0z"/>
<path d="M2323 2817 c-32 -30 -36 -39 -36 -82 0 -43 4 -52 36 -82 29 -26 45
-33 77 -33 32 0 48 7 77 33 32 30 36 39 36 82 0 43 -4 52 -36 82 -29 26 -45
33 -77 33 -32 0 -48 -7 -77 -33z"/>
<path d="M1190 2822 c-20 -6 -40 -32 -40 -53 0 -49 82 -69 102 -24 20 45 -17
91 -62 77z"/>
<path d="M2593 2818 c-48 -23 -29 -98 25 -98 16 0 33 5 40 12 20 20 14 65 -10
82 -26 18 -26 18 -55 4z"/>
<path d="M1379 2798 c-35 -12 -53 -55 -40 -91 22 -58 102 -60 129 -4 28 58
-27 116 -89 95z"/>
<path d="M2717 2707 c-8 -21 8 -39 29 -35 27 5 25 42 -2 46 -12 2 -24 -3 -27
-11z"/>
<path d="M1117 2667 c-8 -21 8 -39 29 -35 27 5 25 42 -2 46 -12 2 -24 -3 -27
-11z"/>
<path d="M1246 2654 c-32 -31 -11 -84 32 -84 35 0 52 17 52 52 0 43 -53 64
-84 32z"/>
<path d="M1814 2630 c-76 -11 -202 -52 -263 -87 -220 -127 -351 -325 -383
-579 -36 -282 111 -576 362 -725 430 -255 983 -27 1111 458 29 107 29 269 0
376 -83 316 -356 538 -686 560 -44 3 -107 2 -141 -3z"/>
<path d="M2567 2612 c-36 -38 -37 -89 -1 -131 21 -26 33 -31 68 -31 87 0 130
103 70 164 -38 37 -100 37 -137 -2z"/>
<path d="M1156 2557 c-21 -16 -18 -45 7 -61 37 -23 77 35 41 61 -10 7 -21 13
-24 13 -3 0 -14 -6 -24 -13z"/>
<path d="M3031 2511 c-14 -25 -5 -48 20 -56 27 -9 51 13 47 44 -4 34 -51 43
-67 12z"/>
<path d="M914 2505 c-4 -9 0 -23 9 -32 21 -21 49 -9 45 19 -4 28 -45 38 -54
13z"/>
<path d="M424 2475 c-4 -9 0 -23 9 -32 21 -21 49 -9 45 19 -4 28 -45 38 -54
13z"/>
<path d="M1044 2470 c-42 -17 -65 -71 -48 -115 10 -25 62 -47 95 -40 36 8 59
40 59 82 0 31 -28 73 -49 73 -5 0 -15 2 -23 4 -7 3 -23 1 -34 -4z"/>
<path d="M737 2423 c-12 -11 -8 -40 7 -52 26 -22 63 10 50 44 -6 15 -45 21
-57 8z"/>
<path d="M2675 2400 c-14 -44 44 -69 65 -29 9 15 8 24 -1 35 -18 21 -57 18
-64 -6z"/>
<path d="M2855 2395 c-29 -28 -31 -42 -9 -73 29 -42 104 -20 104 31 0 28 -9
41 -37 56 -29 15 -30 15 -58 -14z"/>
<path d="M852 2394 c-26 -18 -30 -65 -6 -88 8 -9 28 -16 44 -16 56 0 80 60 40
100 -24 24 -48 25 -78 4z"/>
<path d="M3018 2309 c-30 -17 -16 -69 18 -69 14 0 44 27 44 40 0 10 -29 40
-38 40 -4 0 -15 -5 -24 -11z"/>
<path d="M2736 2288 c-20 -28 -20 -43 0 -62 24 -24 61 -20 80 9 15 23 15 27 0
50 -21 32 -59 33 -80 3z"/>
<path d="M891 2236 c-33 -18 -50 -53 -51 -101 -1 -102 117 -150 191 -79 75 72
27 195 -75 194 -22 -1 -52 -7 -65 -14z"/>
<path d="M2854 2225 c-8 -19 3 -35 26 -35 19 0 30 17 23 38 -6 17 -42 15 -49
-3z"/>
<path d="M2796 2154 c-30 -30 -13 -74 29 -74 42 0 59 44 29 74 -8 9 -22 16
-29 16 -7 0 -21 -7 -29 -16z"/>
<path d="M730 2133 c-40 -14 -53 -69 -22 -96 52 -48 132 20 90 75 -15 19 -47
28 -68 21z"/>
<path d="M2815 2016 c-30 -30 -32 -59 -5 -86 25 -25 51 -25 80 -2 26 21 30 67
9 87 -29 27 -57 27 -84 1z"/>
<path d="M823 1984 c-3 -8 -1 -20 5 -26 16 -16 42 -2 42 22 0 24 -38 28 -47 4z"/>
<path d="M943 1957 c-39 -17 -39 -77 1 -95 33 -15 70 6 74 41 6 47 -32 74 -75
54z"/>
<path d="M3164 1906 c-9 -24 4 -48 23 -44 12 2 18 12 18 28 0 29 -32 41 -41
16z"/>
<path d="M773 1888 c-26 -13 -43 -55 -33 -83 28 -75 140 -57 140 22 0 28 -41
73 -67 72 -10 0 -28 -5 -40 -11z"/>
<path d="M2796 1825 c-4 -12 17 -45 29 -45 2 0 10 7 19 15 20 20 10 45 -19 45
-13 0 -25 -7 -29 -15z"/>
<path d="M939 1789 c-36 -36 -6 -99 48 -99 28 0 63 33 63 60 0 28 -35 60 -65
60 -14 0 -34 -9 -46 -21z"/>
<path d="M2950 1780 c0 -15 5 -20 18 -18 9 2 17 10 17 18 0 8 -8 16 -17 18
-13 2 -18 -3 -18 -18z"/>
<path d="M601 1754 c-28 -20 -28 -69 0 -84 31 -17 68 -4 75 27 13 48 -35 85
-75 57z"/>
<path d="M830 1701 c-13 -25 -4 -48 21 -54 20 -5 49 16 49 37 0 35 -53 48 -70
17z"/>
<path d="M2799 1691 c-38 -39 -39 -87 -3 -130 21 -25 33 -31 66 -31 53 0 77
14 94 57 12 27 13 42 4 69 -23 70 -108 88 -161 35z"/>
<path d="M732 1673 c2 -10 10 -18 18 -18 8 0 16 8 18 18 2 12 -3 17 -18 17
-15 0 -20 -5 -18 -17z"/>
<path d="M3343 1665 c-7 -20 2 -29 21 -22 9 4 13 13 10 22 -8 19 -23 19 -31 0z"/>
<path d="M2987 1564 c-10 -10 -9 -42 2 -48 18 -11 42 6 39 28 -3 21 -28 33
-41 20z"/>
<path d="M916 1474 c-9 -8 -16 -22 -16 -29 0 -7 7 -21 16 -29 30 -30 74 -13
74 29 0 42 -44 59 -74 29z"/>
<path d="M2717 1473 c-9 -2 -24 -17 -32 -33 -33 -63 31 -128 95 -95 47 24 54
72 15 110 -23 24 -40 28 -78 18z"/>
<path d="M2882 1464 c-27 -18 -29 -55 -4 -77 35 -32 82 -10 82 38 0 20 -32 55
-50 55 -3 0 -16 -7 -28 -16z"/>
<path d="M1064 1435 c-36 -36 -20 -84 33 -100 17 -4 29 1 48 19 30 30 32 59 5
86 -27 27 -56 25 -86 -5z"/>
<path d="M3017 1453 c-26 -26 12 -80 47 -67 21 8 30 42 16 59 -13 15 -51 20
-63 8z"/>
<path d="M2962 1333 c-14 -26 3 -53 34 -53 14 0 27 7 31 16 15 39 -46 73 -65
37z"/>
<path d="M2826 1324 c-22 -21 -20 -50 4 -74 24 -24 38 -25 68 -4 41 29 19 94
-33 94 -13 0 -31 -7 -39 -16z"/>
<path d="M1173 1310 c-32 -13 -57 -57 -56 -98 1 -27 9 -43 32 -64 35 -31 68
-35 111 -13 109 56 27 221 -87 175z"/>
<path d="M1020 1296 c-19 -23 -8 -61 18 -64 44 -7 67 32 36 62 -19 20 -38 20
-54 2z"/>
<path d="M3182 1243 c-13 -26 -4 -43 23 -43 13 0 25 6 28 13 6 17 -11 47 -28
47 -8 0 -18 -8 -23 -17z"/>
<path d="M2966 1223 c-4 -9 0 -23 9 -32 13 -14 17 -14 32 1 13 14 14 20 3 32
-16 21 -36 20 -44 -1z"/>
<path d="M1040 1175 c-11 -13 -11 -19 3 -32 21 -21 49 -9 45 19 -4 28 -30 35
-48 13z"/>
<path d="M2473 1179 c-47 -14 -73 -52 -73 -109 0 -59 26 -95 80 -111 53 -16
107 10 134 65 17 36 18 43 5 79 -23 65 -81 95 -146 76z"/>
<path d="M1367 1129 c-28 -16 -40 -58 -26 -90 22 -55 106 -55 129 0 26 65 -42
125 -103 90z"/>
<path d="M2872 1114 c-12 -8 -22 -24 -22 -34 0 -10 10 -26 22 -34 19 -13 25
-14 43 -2 11 7 20 24 20 36 0 12 -9 29 -20 36 -18 12 -24 11 -43 -2z"/>
<path d="M760 1086 c-27 -33 18 -72 48 -42 13 13 14 20 6 34 -15 23 -38 26
-54 8z"/>
<path d="M1251 1076 c-9 -10 -8 -16 3 -25 10 -9 16 -8 25 3 9 10 8 16 -3 25
-10 9 -16 8 -25 -3z"/>
<path d="M2205 1035 c-50 -49 -15 -135 55 -135 40 0 80 39 80 78 0 74 -84 109
-135 57z"/>
<path d="M1571 1014 c-52 -43 -54 -118 -5 -167 75 -75 194 -20 194 89 0 28 -8
44 -34 70 -45 45 -108 48 -155 8z"/>
<path d="M1073 994 c-3 -8 2 -23 11 -32 15 -15 17 -15 32 0 21 21 11 48 -16
48 -11 0 -23 -7 -27 -16z"/>
<path d="M2022 994 c-34 -23 -28 -84 10 -102 64 -30 118 48 68 98 -24 24 -48
25 -78 4z"/>
<path d="M1270 985 c-10 -12 -10 -18 0 -30 16 -19 39 -19 46 0 6 15 -11 45
-26 45 -4 0 -13 -7 -20 -15z"/>
<path d="M1832 968 c-35 -35 14 -102 57 -79 45 25 33 91 -17 91 -16 0 -33 -5
-40 -12z"/>
<path d="M1348 905 c-10 -22 -9 -29 10 -47 18 -19 25 -20 47 -10 44 20 28 82
-22 82 -15 0 -27 -9 -35 -25z"/>
<path d="M2392 918 c-45 -22 -41 -88 8 -108 67 -28 114 55 58 103 -23 19 -34
20 -66 5z"/>
<path d="M1924 835 c-34 -52 15 -112 71 -87 54 25 35 112 -25 112 -20 0 -35
-8 -46 -25z"/>
<path d="M2266 844 c-19 -19 -20 -25 -3 -48 19 -26 61 -18 65 12 7 44 -32 67
-62 36z"/>
<path d="M1780 829 c-9 -16 -8 -26 5 -45 17 -27 27 -29 56 -14 21 12 25 50 7
68 -19 19 -56 14 -68 -9z"/>
<path d="M2082 833 c2 -10 10 -18 18 -18 22 0 18 29 -3 33 -14 3 -18 -1 -15
-15z"/>
<path d="M1336 794 c-31 -30 -8 -69 36 -62 30 4 38 46 12 65 -23 17 -29 16
-48 -3z"/>
<path d="M1474 802 c-23 -15 -34 -50 -25 -75 24 -62 121 -41 121 25 0 40 -63
73 -96 50z"/>
<path d="M1643 758 c-28 -14 -43 -55 -31 -89 9 -26 44 -49 74 -49 23 0 64 47
64 73 0 51 -61 88 -107 65z"/>
<path d="M1803 694 c-3 -8 1 -22 9 -30 13 -14 17 -14 32 1 13 13 14 20 5 31
-15 19 -38 18 -46 -2z"/>
<path d="M2411 666 c-9 -11 -10 -20 -1 -35 19 -36 64 -20 58 20 -4 28 -39 37
-57 15z"/>
<path d="M2502 641 c-20 -12 -10 -46 13 -46 14 0 20 7 20 24 0 27 -13 35 -33
22z"/>
<path d="M1740 605 c-6 -8 -10 -22 -8 -32 4 -25 48 -30 65 -8 26 37 -27 76
-57 40z"/>
<path d="M867 534 c-14 -14 -7 -35 11 -32 9 2 17 10 17 17 0 16 -18 25 -28 15z"/>
<path d="M1470 510 c-24 -24 -24 -29 -4 -58 17 -24 53 -29 72 -10 19 19 15 66
-7 78 -28 14 -38 13 -61 -10z"/>
<path d="M2495 511 c-8 -15 3 -31 21 -31 9 0 14 7 12 17 -4 20 -24 28 -33 14z"/>
</g>
</svg>
